<svg width="392" height="204" viewBox="0 0 392 204" fill="none" xmlns="http://www.w3.org/2000/svg">
<mask id="path-1-outside-1_17_63" maskUnits="userSpaceOnUse" x="50.5" y="-8" width="279" height="111" fill="black">
<rect fill="white" x="50.5" y="-8" width="279" height="111"/>
<path d="M141.873 11.7914V17.8075H147.889V41.8717H141.873V47.8877H135.857V53.9037H141.873V59.9198H147.889V83.984H141.873V90H129.841V83.984H123.825V77.9679H117.809V71.9519H111.793V65.9358H105.777V83.984H99.7609V90H69.6807V83.984H63.6647V11.7914H69.6807V23.8235H75.6968V17.8075H81.7128V11.7914H69.6807V5.77539H135.857V11.7914H141.873ZM123.825 35.8556V23.8235H105.777V35.8556H123.825ZM226.121 17.8075V23.8235H232.137V29.8396H226.121V35.8556H196.041V41.8717H226.121V47.8877H232.137V53.9037H226.121V59.9198H196.041V65.9358H226.121V71.9519H232.137V83.984H226.121V90H165.961V83.984H159.945V23.8235H165.961V35.8556H171.977V29.8396H177.993V23.8235H165.961V17.8075H226.121ZM310.317 23.8235H316.333V35.8556H310.317V41.8717H304.301V47.8877H298.284V53.9037H304.301V59.9198H310.317V65.9358H316.333V83.984H310.317V90H298.284V83.984H292.268V77.9679H286.252V71.9519H280.236V77.9679H274.22V83.984H268.204V90H250.156V83.984H244.14V71.9519H250.156V65.9358H256.172V59.9198H262.188V53.9037H256.172V47.8877H250.156V41.8717H244.14V23.8235H250.156V35.8556H256.172V29.8396H262.188V23.8235H268.204V29.8396H274.22V35.8556H280.236V29.8396H286.252V23.8235H292.268V17.8075H310.317V23.8235ZM262.188 23.8235H250.156V17.8075H262.188V23.8235Z"/>
</mask>
<path d="M141.873 11.7914V17.8075H147.889V41.8717H141.873V47.8877H135.857V53.9037H141.873V59.9198H147.889V83.984H141.873V90H129.841V83.984H123.825V77.9679H117.809V71.9519H111.793V65.9358H105.777V83.984H99.7609V90H69.6807V83.984H63.6647V11.7914H69.6807V23.8235H75.6968V17.8075H81.7128V11.7914H69.6807V5.77539H135.857V11.7914H141.873ZM123.825 35.8556V23.8235H105.777V35.8556H123.825ZM226.121 17.8075V23.8235H232.137V29.8396H226.121V35.8556H196.041V41.8717H226.121V47.8877H232.137V53.9037H226.121V59.9198H196.041V65.9358H226.121V71.9519H232.137V83.984H226.121V90H165.961V83.984H159.945V23.8235H165.961V35.8556H171.977V29.8396H177.993V23.8235H165.961V17.8075H226.121ZM310.317 23.8235H316.333V35.8556H310.317V41.8717H304.301V47.8877H298.284V53.9037H304.301V59.9198H310.317V65.9358H316.333V83.984H310.317V90H298.284V83.984H292.268V77.9679H286.252V71.9519H280.236V77.9679H274.22V83.984H268.204V90H250.156V83.984H244.14V71.9519H250.156V65.9358H256.172V59.9198H262.188V53.9037H256.172V47.8877H250.156V41.8717H244.14V23.8235H250.156V35.8556H256.172V29.8396H262.188V23.8235H268.204V29.8396H274.22V35.8556H280.236V29.8396H286.252V23.8235H292.268V17.8075H310.317V23.8235ZM262.188 23.8235H250.156V17.8075H262.188V23.8235Z" fill="#31F39C"/>
<path d="M141.873 11.7914H154.657V-0.992655H141.873V11.7914ZM141.873 17.8075H129.089V30.5916H141.873V17.8075ZM147.889 17.8075H160.673V5.02339H147.889V17.8075ZM147.889 41.8717V54.6557H160.673V41.8717H147.889ZM141.873 41.8717V29.0876H129.089V41.8717H141.873ZM141.873 47.8877V60.6718H154.657V47.8877H141.873ZM135.857 47.8877V35.1036H123.073V47.8877H135.857ZM135.857 53.9037H123.073V66.6878H135.857V53.9037ZM141.873 53.9037H154.657V41.1197H141.873V53.9037ZM141.873 59.9198H129.089V72.7039H141.873V59.9198ZM147.889 59.9198H160.673V47.1357H147.889V59.9198ZM147.889 83.984V96.7681H160.673V83.984H147.889ZM141.873 83.984V71.1999H129.089V83.984H141.873ZM141.873 90V102.784H154.657V90H141.873ZM129.841 90H117.057V102.784H129.841V90ZM129.841 83.984H142.625V71.1999H129.841V83.984ZM123.825 83.984H111.041V96.7681H123.825V83.984ZM123.825 77.9679H136.609V65.1838H123.825V77.9679ZM117.809 77.9679H105.025V90.752H117.809V77.9679ZM117.809 71.9519H130.593V59.1678H117.809V71.9519ZM111.793 71.9519H99.0089V84.736H111.793V71.9519ZM111.793 65.9358H124.577V53.1517H111.793V65.9358ZM105.777 65.9358V53.1517H92.9929V65.9358H105.777ZM105.777 83.984V96.7681H118.561V83.984H105.777ZM99.7609 83.984V71.1999H86.9769V83.984H99.7609ZM99.7609 90V102.784H112.545V90H99.7609ZM69.6807 90H56.8966V102.784H69.6807V90ZM69.6807 83.984H82.4648V71.1999H69.6807V83.984ZM63.6647 83.984H50.8806V96.7681H63.6647V83.984ZM63.6647 11.7914V-0.992655H50.8806V11.7914H63.6647ZM69.6807 11.7914H82.4648V-0.992655H69.6807V11.7914ZM69.6807 23.8235H56.8966V36.6076H69.6807V23.8235ZM75.6968 23.8235V36.6076H88.4809V23.8235H75.6968ZM75.6968 17.8075V5.02339H62.9127V17.8075H75.6968ZM81.7128 17.8075V30.5916H94.4969V17.8075H81.7128ZM81.7128 11.7914H94.4969V-0.992655H81.7128V11.7914ZM69.6807 11.7914H56.8966V24.5755H69.6807V11.7914ZM69.6807 5.77539V-7.0087H56.8966V5.77539H69.6807ZM135.857 5.77539H148.641V-7.0087H135.857V5.77539ZM135.857 11.7914H123.073V24.5755H135.857V11.7914ZM123.825 35.8556V48.6397H136.609V35.8556H123.825ZM123.825 23.8235H136.609V11.0394H123.825V23.8235ZM105.777 23.8235V11.0394H92.9929V23.8235H105.777ZM105.777 35.8556H92.9929V48.6397H105.777V35.8556ZM129.089 11.7914V17.8075H154.657V11.7914H129.089ZM141.873 30.5916H147.889V5.02339H141.873V30.5916ZM135.105 17.8075V41.8717H160.673V17.8075H135.105ZM147.889 29.0876H141.873V54.6557H147.889V29.0876ZM129.089 41.8717V47.8877H154.657V41.8717H129.089ZM141.873 35.1036H135.857V60.6718H141.873V35.1036ZM123.073 47.8877V53.9037H148.641V47.8877H123.073ZM135.857 66.6878H141.873V41.1197H135.857V66.6878ZM129.089 53.9037V59.9198H154.657V53.9037H129.089ZM141.873 72.7039H147.889V47.1357H141.873V72.7039ZM135.105 59.9198V83.984H160.673V59.9198H135.105ZM147.889 71.1999H141.873V96.7681H147.889V71.1999ZM129.089 83.984V90H154.657V83.984H129.089ZM141.873 77.2159H129.841V102.784H141.873V77.2159ZM142.625 90V83.984H117.057V90H142.625ZM129.841 71.1999H123.825V96.7681H129.841V71.1999ZM136.609 83.984V77.9679H111.041V83.984H136.609ZM123.825 65.1838H117.809V90.752H123.825V65.1838ZM130.593 77.9679V71.9519H105.025V77.9679H130.593ZM117.809 59.1678H111.793V84.736H117.809V59.1678ZM124.577 71.9519V65.9358H99.0089V71.9519H124.577ZM111.793 53.1517H105.777V78.7199H111.793V53.1517ZM92.9929 65.9358V83.984H118.561V65.9358H92.9929ZM105.777 71.1999H99.7609V96.7681H105.777V71.1999ZM86.9769 83.984V90H112.545V83.984H86.9769ZM99.7609 77.2159H69.6807V102.784H99.7609V77.2159ZM82.4648 90V83.984H56.8966V90H82.4648ZM69.6807 71.1999H63.6647V96.7681H69.6807V71.1999ZM76.4488 83.984V11.7914H50.8806V83.984H76.4488ZM63.6647 24.5755H69.6807V-0.992655H63.6647V24.5755ZM56.8966 11.7914V23.8235H82.4648V11.7914H56.8966ZM69.6807 36.6076H75.6968V11.0394H69.6807V36.6076ZM88.4809 23.8235V17.8075H62.9127V23.8235H88.4809ZM75.6968 30.5916H81.7128V5.02339H75.6968V30.5916ZM94.4969 17.8075V11.7914H68.9287V17.8075H94.4969ZM81.7128 -0.992655H69.6807V24.5755H81.7128V-0.992655ZM82.4648 11.7914V5.77539H56.8966V11.7914H82.4648ZM69.6807 18.5595H135.857V-7.0087H69.6807V18.5595ZM123.073 5.77539V11.7914H148.641V5.77539H123.073ZM135.857 24.5755H141.873V-0.992655H135.857V24.5755ZM136.609 35.8556V23.8235H111.041V35.8556H136.609ZM123.825 11.0394H105.777V36.6076H123.825V11.0394ZM92.9929 23.8235V35.8556H118.561V23.8235H92.9929ZM105.777 48.6397H123.825V23.0715H105.777V48.6397ZM226.121 17.8075H238.905V5.02339H226.121V17.8075ZM226.121 23.8235H213.337V36.6076H226.121V23.8235ZM232.137 23.8235H244.921V11.0394H232.137V23.8235ZM232.137 29.8396V42.6237H244.921V29.8396H232.137ZM226.121 29.8396V17.0555H213.337V29.8396H226.121ZM226.121 35.8556V48.6397H238.905V35.8556H226.121ZM196.041 35.8556V23.0715H183.257V35.8556H196.041ZM196.041 41.8717H183.257V54.6557H196.041V41.8717ZM226.121 41.8717H238.905V29.0876H226.121V41.8717ZM226.121 47.8877H213.337V60.6718H226.121V47.8877ZM232.137 47.8877H244.921V35.1036H232.137V47.8877ZM232.137 53.9037V66.6878H244.921V53.9037H232.137ZM226.121 53.9037V41.1197H213.337V53.9037H226.121ZM226.121 59.9198V72.7039H238.905V59.9198H226.121ZM196.041 59.9198V47.1357H183.257V59.9198H196.041ZM196.041 65.9358H183.257V78.7199H196.041V65.9358ZM226.121 65.9358H238.905V53.1517H226.121V65.9358ZM226.121 71.9519H213.337V84.736H226.121V71.9519ZM232.137 71.9519H244.921V59.1678H232.137V71.9519ZM232.137 83.984V96.7681H244.921V83.984H232.137ZM226.121 83.984V71.1999H213.337V83.984H226.121ZM226.121 90V102.784H238.905V90H226.121ZM165.961 90H153.177V102.784H165.961V90ZM165.961 83.984H178.745V71.1999H165.961V83.984ZM159.945 83.984H147.161V96.7681H159.945V83.984ZM159.945 23.8235V11.0394H147.161V23.8235H159.945ZM165.961 23.8235H178.745V11.0394H165.961V23.8235ZM165.961 35.8556H153.177V48.6397H165.961V35.8556ZM171.977 35.8556V48.6397H184.761V35.8556H171.977ZM171.977 29.8396V17.0555H159.193V29.8396H171.977ZM177.993 29.8396V42.6237H190.777V29.8396H177.993ZM177.993 23.8235H190.777V11.0394H177.993V23.8235ZM165.961 23.8235H153.177V36.6076H165.961V23.8235ZM165.961 17.8075V5.02339H153.177V17.8075H165.961ZM213.337 17.8075V23.8235H238.905V17.8075H213.337ZM226.121 36.6076H232.137V11.0394H226.121V36.6076ZM219.353 23.8235V29.8396H244.921V23.8235H219.353ZM232.137 17.0555H226.121V42.6237H232.137V17.0555ZM213.337 29.8396V35.8556H238.905V29.8396H213.337ZM226.121 23.0715H196.041V48.6397H226.121V23.0715ZM183.257 35.8556V41.8717H208.825V35.8556H183.257ZM196.041 54.6557H226.121V29.0876H196.041V54.6557ZM213.337 41.8717V47.8877H238.905V41.8717H213.337ZM226.121 60.6718H232.137V35.1036H226.121V60.6718ZM219.353 47.8877V53.9037H244.921V47.8877H219.353ZM232.137 41.1197H226.121V66.6878H232.137V41.1197ZM213.337 53.9037V59.9198H238.905V53.9037H213.337ZM226.121 47.1357H196.041V72.7039H226.121V47.1357ZM183.257 59.9198V65.9358H208.825V59.9198H183.257ZM196.041 78.7199H226.121V53.1517H196.041V78.7199ZM213.337 65.9358V71.9519H238.905V65.9358H213.337ZM226.121 84.736H232.137V59.1678H226.121V84.736ZM219.353 71.9519V83.984H244.921V71.9519H219.353ZM232.137 71.1999H226.121V96.7681H232.137V71.1999ZM213.337 83.984V90H238.905V83.984H213.337ZM226.121 77.2159H165.961V102.784H226.121V77.2159ZM178.745 90V83.984H153.177V90H178.745ZM165.961 71.1999H159.945V96.7681H165.961V71.1999ZM172.729 83.984V23.8235H147.161V83.984H172.729ZM159.945 36.6076H165.961V11.0394H159.945V36.6076ZM153.177 23.8235V35.8556H178.745V23.8235H153.177ZM165.961 48.6397H171.977V23.0715H165.961V48.6397ZM184.761 35.8556V29.8396H159.193V35.8556H184.761ZM171.977 42.6237H177.993V17.0555H171.977V42.6237ZM190.777 29.8396V23.8235H165.209V29.8396H190.777ZM177.993 11.0394H165.961V36.6076H177.993V11.0394ZM178.745 23.8235V17.8075H153.177V23.8235H178.745ZM165.961 30.5916H226.121V5.02339H165.961V30.5916ZM310.317 23.8235H297.532V36.6076H310.317V23.8235ZM316.333 23.8235H329.117V11.0394H316.333V23.8235ZM316.333 35.8556V48.6397H329.117V35.8556H316.333ZM310.317 35.8556V23.0715H297.532V35.8556H310.317ZM310.317 41.8717V54.6557H323.101V41.8717H310.317ZM304.301 41.8717V29.0876H291.516V41.8717H304.301ZM304.301 47.8877V60.6718H317.085V47.8877H304.301ZM298.284 47.8877V35.1036H285.5V47.8877H298.284ZM298.284 53.9037H285.5V66.6878H298.284V53.9037ZM304.301 53.9037H317.085V41.1197H304.301V53.9037ZM304.301 59.9198H291.516V72.7039H304.301V59.9198ZM310.317 59.9198H323.101V47.1357H310.317V59.9198ZM310.317 65.9358H297.532V78.7199H310.317V65.9358ZM316.333 65.9358H329.117V53.1517H316.333V65.9358ZM316.333 83.984V96.7681H329.117V83.984H316.333ZM310.317 83.984V71.1999H297.532V83.984H310.317ZM310.317 90V102.784H323.101V90H310.317ZM298.284 90H285.5V102.784H298.284V90ZM298.284 83.984H311.069V71.1999H298.284V83.984ZM292.268 83.984H279.484V96.7681H292.268V83.984ZM292.268 77.9679H305.053V65.1838H292.268V77.9679ZM286.252 77.9679H273.468V90.752H286.252V77.9679ZM286.252 71.9519H299.036V59.1678H286.252V71.9519ZM280.236 71.9519V59.1678H267.452V71.9519H280.236ZM280.236 77.9679V90.752H293.02V77.9679H280.236ZM274.22 77.9679V65.1838H261.436V77.9679H274.22ZM274.22 83.984V96.7681H287.004V83.984H274.22ZM268.204 83.984V71.1999H255.42V83.984H268.204ZM268.204 90V102.784H280.988V90H268.204ZM250.156 90H237.372V102.784H250.156V90ZM250.156 83.984H262.94V71.1999H250.156V83.984ZM244.14 83.984H231.356V96.7681H244.14V83.984ZM244.14 71.9519V59.1678H231.356V71.9519H244.14ZM250.156 71.9519V84.736H262.94V71.9519H250.156ZM250.156 65.9358V53.1517H237.372V65.9358H250.156ZM256.172 65.9358V78.7199H268.956V65.9358H256.172ZM256.172 59.9198V47.1357H243.388V59.9198H256.172ZM262.188 59.9198V72.7039H274.972V59.9198H262.188ZM262.188 53.9037H274.972V41.1197H262.188V53.9037ZM256.172 53.9037H243.388V66.6878H256.172V53.9037ZM256.172 47.8877H268.956V35.1036H256.172V47.8877ZM250.156 47.8877H237.372V60.6718H250.156V47.8877ZM250.156 41.8717H262.94V29.0876H250.156V41.8717ZM244.14 41.8717H231.356V54.6557H244.14V41.8717ZM244.14 23.8235V11.0394H231.356V23.8235H244.14ZM250.156 23.8235H262.94V11.0394H250.156V23.8235ZM250.156 35.8556H237.372V48.6397H250.156V35.8556ZM256.172 35.8556V48.6397H268.956V35.8556H256.172ZM256.172 29.8396V17.0555H243.388V29.8396H256.172ZM262.188 29.8396V42.6237H274.972V29.8396H262.188ZM262.188 23.8235V11.0394H249.404V23.8235H262.188ZM268.204 23.8235H280.988V11.0394H268.204V23.8235ZM268.204 29.8396H255.42V42.6237H268.204V29.8396ZM274.22 29.8396H287.004V17.0555H274.22V29.8396ZM274.22 35.8556H261.436V48.6397H274.22V35.8556ZM280.236 35.8556V48.6397H293.02V35.8556H280.236ZM280.236 29.8396V17.0555H267.452V29.8396H280.236ZM286.252 29.8396V42.6237H299.036V29.8396H286.252ZM286.252 23.8235V11.0394H273.468V23.8235H286.252ZM292.268 23.8235V36.6076H305.053V23.8235H292.268ZM292.268 17.8075V5.02339H279.484V17.8075H292.268ZM310.317 17.8075H323.101V5.02339H310.317V17.8075ZM262.188 23.8235V36.6076H274.972V23.8235H262.188ZM250.156 23.8235H237.372V36.6076H250.156V23.8235ZM250.156 17.8075V5.02339H237.372V17.8075H250.156ZM262.188 17.8075H274.972V5.02339H262.188V17.8075ZM310.317 36.6076H316.333V11.0394H310.317V36.6076ZM303.549 23.8235V35.8556H329.117V23.8235H303.549ZM316.333 23.0715H310.317V48.6397H316.333V23.0715ZM297.532 35.8556V41.8717H323.101V35.8556H297.532ZM310.317 29.0876H304.301V54.6557H310.317V29.0876ZM291.516 41.8717V47.8877H317.085V41.8717H291.516ZM304.301 35.1036H298.284V60.6718H304.301V35.1036ZM285.5 47.8877V53.9037H311.069V47.8877H285.5ZM298.284 66.6878H304.301V41.1197H298.284V66.6878ZM291.516 53.9037V59.9198H317.085V53.9037H291.516ZM304.301 72.7039H310.317V47.1357H304.301V72.7039ZM297.532 59.9198V65.9358H323.101V59.9198H297.532ZM310.317 78.7199H316.333V53.1517H310.317V78.7199ZM303.549 65.9358V83.984H329.117V65.9358H303.549ZM316.333 71.1999H310.317V96.7681H316.333V71.1999ZM297.532 83.984V90H323.101V83.984H297.532ZM310.317 77.2159H298.284V102.784H310.317V77.2159ZM311.069 90V83.984H285.5V90H311.069ZM298.284 71.1999H292.268V96.7681H298.284V71.1999ZM305.053 83.984V77.9679H279.484V83.984H305.053ZM292.268 65.1838H286.252V90.752H292.268V65.1838ZM299.036 77.9679V71.9519H273.468V77.9679H299.036ZM286.252 59.1678H280.236V84.736H286.252V59.1678ZM267.452 71.9519V77.9679H293.02V71.9519H267.452ZM280.236 65.1838H274.22V90.752H280.236V65.1838ZM261.436 77.9679V83.984H287.004V77.9679H261.436ZM274.22 71.1999H268.204V96.7681H274.22V71.1999ZM255.42 83.984V90H280.988V83.984H255.42ZM268.204 77.2159H250.156V102.784H268.204V77.2159ZM262.94 90V83.984H237.372V90H262.94ZM250.156 71.1999H244.14V96.7681H250.156V71.1999ZM256.924 83.984V71.9519H231.356V83.984H256.924ZM244.14 84.736H250.156V59.1678H244.14V84.736ZM262.94 71.9519V65.9358H237.372V71.9519H262.94ZM250.156 78.7199H256.172V53.1517H250.156V78.7199ZM268.956 65.9358V59.9198H243.388V65.9358H268.956ZM256.172 72.7039H262.188V47.1357H256.172V72.7039ZM274.972 59.9198V53.9037H249.404V59.9198H274.972ZM262.188 41.1197H256.172V66.6878H262.188V41.1197ZM268.956 53.9037V47.8877H243.388V53.9037H268.956ZM256.172 35.1036H250.156V60.6718H256.172V35.1036ZM262.94 47.8877V41.8717H237.372V47.8877H262.94ZM250.156 29.0876H244.14V54.6557H250.156V29.0876ZM256.924 41.8717V23.8235H231.356V41.8717H256.924ZM244.14 36.6076H250.156V11.0394H244.14V36.6076ZM237.372 23.8235V35.8556H262.94V23.8235H237.372ZM250.156 48.6397H256.172V23.0715H250.156V48.6397ZM268.956 35.8556V29.8396H243.388V35.8556H268.956ZM256.172 42.6237H262.188V17.0555H256.172V42.6237ZM274.972 29.8396V23.8235H249.404V29.8396H274.972ZM262.188 36.6076H268.204V11.0394H262.188V36.6076ZM255.42 23.8235V29.8396H280.988V23.8235H255.42ZM268.204 42.6237H274.22V17.0555H268.204V42.6237ZM261.436 29.8396V35.8556H287.004V29.8396H261.436ZM274.22 48.6397H280.236V23.0715H274.22V48.6397ZM293.02 35.8556V29.8396H267.452V35.8556H293.02ZM280.236 42.6237H286.252V17.0555H280.236V42.6237ZM299.036 29.8396V23.8235H273.468V29.8396H299.036ZM286.252 36.6076H292.268V11.0394H286.252V36.6076ZM305.053 23.8235V17.8075H279.484V23.8235H305.053ZM292.268 30.5916H310.317V5.02339H292.268V30.5916ZM297.532 17.8075V23.8235H323.101V17.8075H297.532ZM262.188 11.0394H250.156V36.6076H262.188V11.0394ZM262.94 23.8235V17.8075H237.372V23.8235H262.94ZM250.156 30.5916H262.188V5.02339H250.156V30.5916ZM249.404 17.8075V23.8235H274.972V17.8075H249.404Z" fill="#3910AF" mask="url(#path-1-outside-1_17_63)"/>
<mask id="path-3-outside-2_17_63" maskUnits="userSpaceOnUse" x="-13" y="94" width="406" height="111" fill="black">
<rect fill="white" x="-13" y="94" width="406" height="111"/>
<path d="M78.7019 113.791V119.807H84.7179V143.872H78.7019V149.888H84.7179V179.968H78.7019V185.984H72.6858V192H6.50934V185.984H0.493301V113.791H6.50934V125.824H12.5254V119.807H18.5414V113.791H6.50934V107.775H72.6858V113.791H78.7019ZM60.6537 137.856V125.824H42.6056V137.856H60.6537ZM42.6056 167.936H60.6537V155.904H42.6056V167.936ZM156.934 167.936V173.952H162.95V185.984H156.934V192H102.79V185.984H96.7735V125.824H102.79V137.856H108.806V131.84H114.822V125.824H102.79V119.807H126.854V125.824H132.87V167.936H156.934ZM205.056 119.807V125.824H211.072V185.984H205.056V192H180.992V185.984H174.976V125.824H180.992V137.856H187.008V131.84H193.024V125.824H180.992V119.807H205.056ZM289.293 119.807V125.824H295.309V137.856H289.293V143.872H277.261V185.984H271.245V192H247.18V185.984H241.164V143.872H229.132V137.856H235.148V131.84H241.164V125.824H229.132V119.807H289.293ZM229.132 125.824V137.856H223.116V125.824H229.132ZM373.488 125.824H379.504V137.856H373.488V143.872H367.472V149.888H361.456V155.904H355.44V161.92H373.488V167.936H379.504V185.984H373.488V192H313.328V185.984H307.311V173.952H313.328V167.936H319.344V161.92H325.36V155.904H331.376V149.888H337.392V143.872H313.328V137.856H319.344V131.84H325.36V125.824H313.328V119.807H373.488V125.824ZM313.328 125.824V137.856H307.311V125.824H313.328Z"/>
</mask>
<path d="M78.7019 113.791V119.807H84.7179V143.872H78.7019V149.888H84.7179V179.968H78.7019V185.984H72.6858V192H6.50934V185.984H0.493301V113.791H6.50934V125.824H12.5254V119.807H18.5414V113.791H6.50934V107.775H72.6858V113.791H78.7019ZM60.6537 137.856V125.824H42.6056V137.856H60.6537ZM42.6056 167.936H60.6537V155.904H42.6056V167.936ZM156.934 167.936V173.952H162.95V185.984H156.934V192H102.79V185.984H96.7735V125.824H102.79V137.856H108.806V131.84H114.822V125.824H102.79V119.807H126.854V125.824H132.87V167.936H156.934ZM205.056 119.807V125.824H211.072V185.984H205.056V192H180.992V185.984H174.976V125.824H180.992V137.856H187.008V131.84H193.024V125.824H180.992V119.807H205.056ZM289.293 119.807V125.824H295.309V137.856H289.293V143.872H277.261V185.984H271.245V192H247.18V185.984H241.164V143.872H229.132V137.856H235.148V131.84H241.164V125.824H229.132V119.807H289.293ZM229.132 125.824V137.856H223.116V125.824H229.132ZM373.488 125.824H379.504V137.856H373.488V143.872H367.472V149.888H361.456V155.904H355.44V161.92H373.488V167.936H379.504V185.984H373.488V192H313.328V185.984H307.311V173.952H313.328V167.936H319.344V161.92H325.36V155.904H331.376V149.888H337.392V143.872H313.328V137.856H319.344V131.84H325.36V125.824H313.328V119.807H373.488V125.824ZM313.328 125.824V137.856H307.311V125.824H313.328Z" fill="#F0F726"/>
<path d="M78.7019 113.791H91.486V101.007H78.7019V113.791ZM78.7019 119.807H65.9178V132.592H78.7019V119.807ZM84.7179 119.807H97.502V107.023H84.7179V119.807ZM84.7179 143.872V156.656H97.502V143.872H84.7179ZM78.7019 143.872V131.088H65.9178V143.872H78.7019ZM78.7019 149.888H65.9178V162.672H78.7019V149.888ZM84.7179 149.888H97.502V137.104H84.7179V149.888ZM84.7179 179.968V192.752H97.502V179.968H84.7179ZM78.7019 179.968V167.184H65.9178V179.968H78.7019ZM78.7019 185.984V198.768H91.486V185.984H78.7019ZM72.6858 185.984V173.2H59.9017V185.984H72.6858ZM72.6858 192V204.784H85.4699V192H72.6858ZM6.50934 192H-6.27475V204.784H6.50934V192ZM6.50934 185.984H19.2934V173.2H6.50934V185.984ZM0.493301 185.984H-12.2908V198.768H0.493301V185.984ZM0.493301 113.791V101.007H-12.2908V113.791H0.493301ZM6.50934 113.791H19.2934V101.007H6.50934V113.791ZM6.50934 125.824H-6.27475V138.608H6.50934V125.824ZM12.5254 125.824V138.608H25.3095V125.824H12.5254ZM12.5254 119.807V107.023H-0.258703V119.807H12.5254ZM18.5414 119.807V132.592H31.3255V119.807H18.5414ZM18.5414 113.791H31.3255V101.007H18.5414V113.791ZM6.50934 113.791H-6.27475V126.576H6.50934V113.791ZM6.50934 107.775V94.9913H-6.27475V107.775H6.50934ZM72.6858 107.775H85.4699V94.9913H72.6858V107.775ZM72.6858 113.791H59.9017V126.576H72.6858V113.791ZM60.6537 137.856V150.64H73.4378V137.856H60.6537ZM60.6537 125.824H73.4378V113.039H60.6537V125.824ZM42.6056 125.824V113.039H29.8215V125.824H42.6056ZM42.6056 137.856H29.8215V150.64H42.6056V137.856ZM42.6056 167.936H29.8215V180.72H42.6056V167.936ZM60.6537 167.936V180.72H73.4378V167.936H60.6537ZM60.6537 155.904H73.4378V143.12H60.6537V155.904ZM42.6056 155.904V143.12H29.8215V155.904H42.6056ZM65.9178 113.791V119.807H91.486V113.791H65.9178ZM78.7019 132.592H84.7179V107.023H78.7019V132.592ZM71.9338 119.807V143.872H97.502V119.807H71.9338ZM84.7179 131.088H78.7019V156.656H84.7179V131.088ZM65.9178 143.872V149.888H91.486V143.872H65.9178ZM78.7019 162.672H84.7179V137.104H78.7019V162.672ZM71.9338 149.888V179.968H97.502V149.888H71.9338ZM84.7179 167.184H78.7019V192.752H84.7179V167.184ZM65.9178 179.968V185.984H91.486V179.968H65.9178ZM78.7019 173.2H72.6858V198.768H78.7019V173.2ZM59.9017 185.984V192H85.4699V185.984H59.9017ZM72.6858 179.216H6.50934V204.784H72.6858V179.216ZM19.2934 192V185.984H-6.27475V192H19.2934ZM6.50934 173.2H0.493301V198.768H6.50934V173.2ZM13.2774 185.984V113.791H-12.2908V185.984H13.2774ZM0.493301 126.576H6.50934V101.007H0.493301V126.576ZM-6.27475 113.791V125.824H19.2934V113.791H-6.27475ZM6.50934 138.608H12.5254V113.039H6.50934V138.608ZM25.3095 125.824V119.807H-0.258703V125.824H25.3095ZM12.5254 132.592H18.5414V107.023H12.5254V132.592ZM31.3255 119.807V113.791H5.75734V119.807H31.3255ZM18.5414 101.007H6.50934V126.576H18.5414V101.007ZM19.2934 113.791V107.775H-6.27475V113.791H19.2934ZM6.50934 120.559H72.6858V94.9913H6.50934V120.559ZM59.9017 107.775V113.791H85.4699V107.775H59.9017ZM72.6858 126.576H78.7019V101.007H72.6858V126.576ZM73.4378 137.856V125.824H47.8696V137.856H73.4378ZM60.6537 113.039H42.6056V138.608H60.6537V113.039ZM29.8215 125.824V137.856H55.3897V125.824H29.8215ZM42.6056 150.64H60.6537V125.072H42.6056V150.64ZM42.6056 180.72H60.6537V155.152H42.6056V180.72ZM73.4378 167.936V155.904H47.8696V167.936H73.4378ZM60.6537 143.12H42.6056V168.688H60.6537V143.12ZM29.8215 155.904V167.936H55.3897V155.904H29.8215ZM156.934 167.936H169.718V155.152H156.934V167.936ZM156.934 173.952H144.15V186.736H156.934V173.952ZM162.95 173.952H175.734V161.168H162.95V173.952ZM162.95 185.984V198.768H175.734V185.984H162.95ZM156.934 185.984V173.2H144.15V185.984H156.934ZM156.934 192V204.784H169.718V192H156.934ZM102.79 192H90.0054V204.784H102.79V192ZM102.79 185.984H115.574V173.2H102.79V185.984ZM96.7735 185.984H83.9894V198.768H96.7735V185.984ZM96.7735 125.824V113.039H83.9894V125.824H96.7735ZM102.79 125.824H115.574V113.039H102.79V125.824ZM102.79 137.856H90.0054V150.64H102.79V137.856ZM108.806 137.856V150.64H121.59V137.856H108.806ZM108.806 131.84V119.055H96.0215V131.84H108.806ZM114.822 131.84V144.624H127.606V131.84H114.822ZM114.822 125.824H127.606V113.039H114.822V125.824ZM102.79 125.824H90.0054V138.608H102.79V125.824ZM102.79 119.807V107.023H90.0054V119.807H102.79ZM126.854 119.807H139.638V107.023H126.854V119.807ZM126.854 125.824H114.07V138.608H126.854V125.824ZM132.87 125.824H145.654V113.039H132.87V125.824ZM132.87 167.936H120.086V180.72H132.87V167.936ZM144.15 167.936V173.952H169.718V167.936H144.15ZM156.934 186.736H162.95V161.168H156.934V186.736ZM150.166 173.952V185.984H175.734V173.952H150.166ZM162.95 173.2H156.934V198.768H162.95V173.2ZM144.15 185.984V192H169.718V185.984H144.15ZM156.934 179.216H102.79V204.784H156.934V179.216ZM115.574 192V185.984H90.0054V192H115.574ZM102.79 173.2H96.7735V198.768H102.79V173.2ZM109.558 185.984V125.824H83.9894V185.984H109.558ZM96.7735 138.608H102.79V113.039H96.7735V138.608ZM90.0054 125.824V137.856H115.574V125.824H90.0054ZM102.79 150.64H108.806V125.072H102.79V150.64ZM121.59 137.856V131.84H96.0215V137.856H121.59ZM108.806 144.624H114.822V119.055H108.806V144.624ZM127.606 131.84V125.824H102.038V131.84H127.606ZM114.822 113.039H102.79V138.608H114.822V113.039ZM115.574 125.824V119.807H90.0054V125.824H115.574ZM102.79 132.592H126.854V107.023H102.79V132.592ZM114.07 119.807V125.824H139.638V119.807H114.07ZM126.854 138.608H132.87V113.039H126.854V138.608ZM120.086 125.824V167.936H145.654V125.824H120.086ZM132.87 180.72H156.934V155.152H132.87V180.72ZM205.056 119.807H217.84V107.023H205.056V119.807ZM205.056 125.824H192.272V138.608H205.056V125.824ZM211.072 125.824H223.857V113.039H211.072V125.824ZM211.072 185.984V198.768H223.857V185.984H211.072ZM205.056 185.984V173.2H192.272V185.984H205.056ZM205.056 192V204.784H217.84V192H205.056ZM180.992 192H168.208V204.784H180.992V192ZM180.992 185.984H193.776V173.2H180.992V185.984ZM174.976 185.984H162.192V198.768H174.976V185.984ZM174.976 125.824V113.039H162.192V125.824H174.976ZM180.992 125.824H193.776V113.039H180.992V125.824ZM180.992 137.856H168.208V150.64H180.992V137.856ZM187.008 137.856V150.64H199.792V137.856H187.008ZM187.008 131.84V119.055H174.224V131.84H187.008ZM193.024 131.84V144.624H205.808V131.84H193.024ZM193.024 125.824H205.808V113.039H193.024V125.824ZM180.992 125.824H168.208V138.608H180.992V125.824ZM180.992 119.807V107.023H168.208V119.807H180.992ZM192.272 119.807V125.824H217.84V119.807H192.272ZM205.056 138.608H211.072V113.039H205.056V138.608ZM198.288 125.824V185.984H223.857V125.824H198.288ZM211.072 173.2H205.056V198.768H211.072V173.2ZM192.272 185.984V192H217.84V185.984H192.272ZM205.056 179.216H180.992V204.784H205.056V179.216ZM193.776 192V185.984H168.208V192H193.776ZM180.992 173.2H174.976V198.768H180.992V173.2ZM187.76 185.984V125.824H162.192V185.984H187.76ZM174.976 138.608H180.992V113.039H174.976V138.608ZM168.208 125.824V137.856H193.776V125.824H168.208ZM180.992 150.64H187.008V125.072H180.992V150.64ZM199.792 137.856V131.84H174.224V137.856H199.792ZM187.008 144.624H193.024V119.055H187.008V144.624ZM205.808 131.84V125.824H180.24V131.84H205.808ZM193.024 113.039H180.992V138.608H193.024V113.039ZM193.776 125.824V119.807H168.208V125.824H193.776ZM180.992 132.592H205.056V107.023H180.992V132.592ZM289.293 119.807H302.077V107.023H289.293V119.807ZM289.293 125.824H276.509V138.608H289.293V125.824ZM295.309 125.824H308.093V113.039H295.309V125.824ZM295.309 137.856V150.64H308.093V137.856H295.309ZM289.293 137.856V125.072H276.509V137.856H289.293ZM289.293 143.872V156.656H302.077V143.872H289.293ZM277.261 143.872V131.088H264.477V143.872H277.261ZM277.261 185.984V198.768H290.045V185.984H277.261ZM271.245 185.984V173.2H258.461V185.984H271.245ZM271.245 192V204.784H284.029V192H271.245ZM247.18 192H234.396V204.784H247.18V192ZM247.18 185.984H259.965V173.2H247.18V185.984ZM241.164 185.984H228.38V198.768H241.164V185.984ZM241.164 143.872H253.948V131.088H241.164V143.872ZM229.132 143.872H216.348V156.656H229.132V143.872ZM229.132 137.856V125.072H216.348V137.856H229.132ZM235.148 137.856V150.64H247.932V137.856H235.148ZM235.148 131.84V119.055H222.364V131.84H235.148ZM241.164 131.84V144.624H253.948V131.84H241.164ZM241.164 125.824H253.948V113.039H241.164V125.824ZM229.132 125.824H216.348V138.608H229.132V125.824ZM229.132 119.807V107.023H216.348V119.807H229.132ZM229.132 125.824H241.916V113.039H229.132V125.824ZM229.132 137.856V150.64H241.916V137.856H229.132ZM223.116 137.856H210.332V150.64H223.116V137.856ZM223.116 125.824V113.039H210.332V125.824H223.116ZM276.509 119.807V125.824H302.077V119.807H276.509ZM289.293 138.608H295.309V113.039H289.293V138.608ZM282.525 125.824V137.856H308.093V125.824H282.525ZM295.309 125.072H289.293V150.64H295.309V125.072ZM276.509 137.856V143.872H302.077V137.856H276.509ZM289.293 131.088H277.261V156.656H289.293V131.088ZM264.477 143.872V185.984H290.045V143.872H264.477ZM277.261 173.2H271.245V198.768H277.261V173.2ZM258.461 185.984V192H284.029V185.984H258.461ZM271.245 179.216H247.18V204.784H271.245V179.216ZM259.965 192V185.984H234.396V192H259.965ZM247.18 173.2H241.164V198.768H247.18V173.2ZM253.948 185.984V143.872H228.38V185.984H253.948ZM241.164 131.088H229.132V156.656H241.164V131.088ZM241.916 143.872V137.856H216.348V143.872H241.916ZM229.132 150.64H235.148V125.072H229.132V150.64ZM247.932 137.856V131.84H222.364V137.856H247.932ZM235.148 144.624H241.164V119.055H235.148V144.624ZM253.948 131.84V125.824H228.38V131.84H253.948ZM241.164 113.039H229.132V138.608H241.164V113.039ZM241.916 125.824V119.807H216.348V125.824H241.916ZM229.132 132.592H289.293V107.023H229.132V132.592ZM216.348 125.824V137.856H241.916V125.824H216.348ZM229.132 125.072H223.116V150.64H229.132V125.072ZM235.9 137.856V125.824H210.332V137.856H235.9ZM223.116 138.608H229.132V113.039H223.116V138.608ZM373.488 125.824H360.704V138.608H373.488V125.824ZM379.504 125.824H392.288V113.039H379.504V125.824ZM379.504 137.856V150.64H392.288V137.856H379.504ZM373.488 137.856V125.072H360.704V137.856H373.488ZM373.488 143.872V156.656H386.272V143.872H373.488ZM367.472 143.872V131.088H354.688V143.872H367.472ZM367.472 149.888V162.672H380.256V149.888H367.472ZM361.456 149.888V137.104H348.672V149.888H361.456ZM361.456 155.904V168.688H374.24V155.904H361.456ZM355.44 155.904V143.12H342.656V155.904H355.44ZM355.44 161.92H342.656V174.704H355.44V161.92ZM373.488 161.92H386.272V149.136H373.488V161.92ZM373.488 167.936H360.704V180.72H373.488V167.936ZM379.504 167.936H392.288V155.152H379.504V167.936ZM379.504 185.984V198.768H392.288V185.984H379.504ZM373.488 185.984V173.2H360.704V185.984H373.488ZM373.488 192V204.784H386.272V192H373.488ZM313.328 192H300.543V204.784H313.328V192ZM313.328 185.984H326.112V173.2H313.328V185.984ZM307.311 185.984H294.527V198.768H307.311V185.984ZM307.311 173.952V161.168H294.527V173.952H307.311ZM313.328 173.952V186.736H326.112V173.952H313.328ZM313.328 167.936V155.152H300.543V167.936H313.328ZM319.344 167.936V180.72H332.128V167.936H319.344ZM319.344 161.92V149.136H306.559V161.92H319.344ZM325.36 161.92V174.704H338.144V161.92H325.36ZM325.36 155.904V143.12H312.576V155.904H325.36ZM331.376 155.904V168.688H344.16V155.904H331.376ZM331.376 149.888V137.104H318.592V149.888H331.376ZM337.392 149.888V162.672H350.176V149.888H337.392ZM337.392 143.872H350.176V131.088H337.392V143.872ZM313.328 143.872H300.543V156.656H313.328V143.872ZM313.328 137.856V125.072H300.543V137.856H313.328ZM319.344 137.856V150.64H332.128V137.856H319.344ZM319.344 131.84V119.055H306.559V131.84H319.344ZM325.36 131.84V144.624H338.144V131.84H325.36ZM325.36 125.824H338.144V113.039H325.36V125.824ZM313.328 125.824H300.543V138.608H313.328V125.824ZM313.328 119.807V107.023H300.543V119.807H313.328ZM373.488 119.807H386.272V107.023H373.488V119.807ZM313.328 125.824H326.112V113.039H313.328V125.824ZM313.328 137.856V150.64H326.112V137.856H313.328ZM307.311 137.856H294.527V150.64H307.311V137.856ZM307.311 125.824V113.039H294.527V125.824H307.311ZM373.488 138.608H379.504V113.039H373.488V138.608ZM366.72 125.824V137.856H392.288V125.824H366.72ZM379.504 125.072H373.488V150.64H379.504V125.072ZM360.704 137.856V143.872H386.272V137.856H360.704ZM373.488 131.088H367.472V156.656H373.488V131.088ZM354.688 143.872V149.888H380.256V143.872H354.688ZM367.472 137.104H361.456V162.672H367.472V137.104ZM348.672 149.888V155.904H374.24V149.888H348.672ZM361.456 143.12H355.44V168.688H361.456V143.12ZM342.656 155.904V161.92H368.224V155.904H342.656ZM355.44 174.704H373.488V149.136H355.44V174.704ZM360.704 161.92V167.936H386.272V161.92H360.704ZM373.488 180.72H379.504V155.152H373.488V180.72ZM366.72 167.936V185.984H392.288V167.936H366.72ZM379.504 173.2H373.488V198.768H379.504V173.2ZM360.704 185.984V192H386.272V185.984H360.704ZM373.488 179.216H313.328V204.784H373.488V179.216ZM326.112 192V185.984H300.543V192H326.112ZM313.328 173.2H307.311V198.768H313.328V173.2ZM320.096 185.984V173.952H294.527V185.984H320.096ZM307.311 186.736H313.328V161.168H307.311V186.736ZM326.112 173.952V167.936H300.543V173.952H326.112ZM313.328 180.72H319.344V155.152H313.328V180.72ZM332.128 167.936V161.92H306.559V167.936H332.128ZM319.344 174.704H325.36V149.136H319.344V174.704ZM338.144 161.92V155.904H312.576V161.92H338.144ZM325.36 168.688H331.376V143.12H325.36V168.688ZM344.16 155.904V149.888H318.592V155.904H344.16ZM331.376 162.672H337.392V137.104H331.376V162.672ZM350.176 149.888V143.872H324.608V149.888H350.176ZM337.392 131.088H313.328V156.656H337.392V131.088ZM326.112 143.872V137.856H300.543V143.872H326.112ZM313.328 150.64H319.344V125.072H313.328V150.64ZM332.128 137.856V131.84H306.559V137.856H332.128ZM319.344 144.624H325.36V119.055H319.344V144.624ZM338.144 131.84V125.824H312.576V131.84H338.144ZM325.36 113.039H313.328V138.608H325.36V113.039ZM326.112 125.824V119.807H300.543V125.824H326.112ZM313.328 132.592H373.488V107.023H313.328V132.592ZM360.704 119.807V125.824H386.272V119.807H360.704ZM300.543 125.824V137.856H326.112V125.824H300.543ZM313.328 125.072H307.311V150.64H313.328V125.072ZM320.096 137.856V125.824H294.527V137.856H320.096ZM307.311 138.608H313.328V113.039H307.311V138.608Z" fill="#3910AF" mask="url(#path-3-outside-2_17_63)"/>
</svg>
